<svg xmlns="http://www.w3.org/2000/svg" width="22" height="22" viewBox="0 0 24 24" fill="currentColor"><path d="M12 .5A12 12 0 0 0 0 12.6c0 5.3 3.4 9.8 8.2 11.3.6.1.8-.3.8-.6v-2c-3.4.8-4.1-1.6-4.1-1.6-.6-1.4-1.4-1.8-1.4-1.8-1.1-.8.1-.8.1-.8 1.2.1 1.8 1.2 1.8 1.2 1.1 1.9 2.9 1.4 3.6 1.1.1-.8.4-1.4.7-1.8-2.7-.3-5.6-1.4-5.6-6.2 0-1.4.5-2.6 1.2-3.5-.1-.3-.5-1.7.1-3.5 0 0 1-.3 3.6 1.3 1-.3 2-.4 3.1-.4s2.1.1 3.1.4c2.6-1.6 3.6-1.3 3.6-1.3.6 1.8.2 3.2.1 3.5.8.9 1.2 2.1 1.2 3.5 0 4.8-2.9 5.9-5.6 6.2.4.4.8 1.1.8 2.3v3.4c0 .3.2.7.8.6 4.8-1.5 8.2-6 8.2-11.3A12 12 0 0 0 12 .5Z"/></svg>
